# xmcd
#
# Track frame offsets: 
#        150
#        36742
#        46960
#        73062
#        86522
#        97987
#        106237
#        137543
#        163290
#        184888
#        195683
#        214833
#        238268
#        256355
#
# Disc length: 3520 seconds
#
# Revision: 6
# Processed by: cddbd v1.5.2PL0 Copyright (c) Steve Scherf et al.
# Submitted via: ExactAudioCopy v0.99pb4
#
DISCID=d00dbe0e
DTITLE=Mike Oldfield - Tubular Bells II
DYEAR=1992
DGENRE=Blues
TTITLE0=Sentinel
TTITLE1=Dark Star
TTITLE2=Clear Light
TTITLE3=Blue Saloon
TTITLE4=Sunjammer
TTITLE5=Red Dawn
TTITLE6=The Bell
TTITLE7=Weightless
TTITLE8=The Great Plain
TTITLE9=Sunset Door
TTITLE10=Tattoo
TTITLE11=Altered State
TTITLE12=Maya Gold
TTITLE13=Moonshine
EXTD=\n YEAR: 2000 ID3G:   0
EXTT0=
EXTT1=
EXTT2=
EXTT3=
EXTT4=
EXTT5=
EXTT6=
EXTT7=
EXTT8=
EXTT9=
EXTT10=
EXTT11=
EXTT12=
EXTT13=
PLAYORDER=
